<svg class="srule" viewBox="0 0 560 46" xmlns="http://www.w3.org/2000/svg" aria-hidden="true"><g stroke="#A8863C" fill="none"><path d="M8 23 H228.0" stroke-width="1.2" opacity=".9"/><path d="M332.0 23 H552" stroke-width="1.2" opacity=".9"/><path d="M20 17 H216.0" stroke-width=".7" opacity=".55"/><path d="M344.0 17 H540" stroke-width=".7" opacity=".55"/><path d="M250.31 26.44 L245.44 26.44 L245.44 31.31 L242.0 27.87 L238.56 31.31 L238.56 26.44 L233.69 26.44 L237.13 23.0 L233.69 19.56 L238.56 19.56 L238.56 14.69 L242.0 18.13 L245.44 14.69 L245.44 19.56 L250.31 19.56 L246.87 23.0 Z" fill="#E3D0A6" stroke-width=".8"/><path d="M326.31 26.44 L321.44 26.44 L321.44 31.31 L318.0 27.87 L314.56 31.31 L314.56 26.44 L309.69 26.44 L313.13 23.0 L309.69 19.56 L314.56 19.56 L314.56 14.69 L318.0 18.13 L321.44 14.69 L321.44 19.56 L326.31 19.56 L322.87 23.0 Z" fill="#E3D0A6" stroke-width=".8"/></g><path d="M301.0 23.0 L290.5 27.35 L294.85 37.85 L284.35 33.5 L280.0 44.0 L275.65 33.5 L265.15 37.85 L269.5 27.35 L259.0 23.0 L269.5 18.65 L265.15 8.15 L275.65 12.5 L280.0 2.0 L284.35 12.5 L294.85 8.15 L290.5 18.65 Z" fill="#FFFCF4" stroke="#A8863C" stroke-width="1.3"/><path d="M289.7 27.02 L284.02 27.02 L284.02 32.7 L280.0 28.68 L275.98 32.7 L275.98 27.02 L270.3 27.02 L274.32 23.0 L270.3 18.98 L275.98 18.98 L275.98 13.3 L280.0 17.32 L284.02 13.3 L284.02 18.98 L289.7 18.98 L285.68 23.0 Z" fill="#E3D0A6" stroke="#A8863C" stroke-width=".8"/><circle cx="280.0" cy="23" r="3" fill="#6B2436"/></svg>